<svg aria-hidden="true" style="position: absolute; width: 0; height: 0; overflow: hidden;" version="1.1" xmlns="http://www.w3.org/2000/svg" xmlns:xlink="http://www.w3.org/1999/xlink">
<defs>
<symbol id="icon-github" viewBox="0 0 32 32">
<path  d="M32 16c0 8.837-7.163 16-16 16s-16-7.163-16-16c0-8.837 7.163-16 16-16s16 7.163 16 16z"></path>
<path fill="#fff" style="fill: var(--color2, #fff)" d="M16 6.588c-5.17 0-9.412 4.242-9.412 9.412 0 4.411 3.096 8.419 7.206 9.412v-3.113c-0.408 0.088-0.781 0.091-1.196-0.031-0.556-0.164-1.008-0.535-1.344-1.099-0.214-0.36-0.593-0.753-0.988-0.724l-0.097-1.098c0.856-0.073 1.594 0.521 2.033 1.258 0.196 0.328 0.421 0.52 0.709 0.605 0.278 0.083 0.577 0.043 0.925-0.080 0.088-0.697 0.408-0.958 0.649-1.327-2.452-0.365-3.429-1.666-3.816-2.692-0.514-1.364-0.238-3.066 0.67-4.143 0.018-0.021 0.050-0.075 0.038-0.113-0.417-1.259 0.090-2.3 0.109-2.41 0.481 0.141 0.559-0.143 2.089 0.786l0.264 0.159c0.111 0.066 0.075 0.028 0.186 0.019 0.59-0.166 1.269-0.266 1.97-0.276l0.006-0c0.668 0.008 1.336 0.104 2.002 0.284l0.086 0.009c-0.008-0.002 0.024-0.006 0.075-0.037 1.911-1.158 1.842-0.779 2.355-0.946 0.019 0.111 0.519 1.169 0.106 2.411-0.056 0.171 1.656 1.739 0.708 4.256-0.388 1.026-1.365 2.328-3.816 2.693 0.314 0.48 0.692 0.734 0.69 1.722v3.886c4.109-0.993 7.206-5 7.206-9.412 0-5.17-4.242-9.412-9.412-9.412z"></path>
</symbol>
<symbol id="icon-telegram" viewBox="0 0 32 32">
<path d="M32 16c0 8.837-7.163 16-16 16s-16-7.163-16-16c0-8.837 7.163-16 16-16s16 7.163 16 16z"></path>
<path fill="#fff" style="fill: var(--color2, #fff)" d="M12.867 18.376l-0.317 4.169c0.455 0 0.651-0.183 0.888-0.401l2.13-1.901 4.414 3.018c0.81 0.421 1.381 0.199 1.6-0.696l2.897-12.673c0.258-1.117-0.433-1.554-1.221-1.28l-17.032 6.086c-1.162 0.422-1.145 1.026-0.198 1.301l4.355 1.264 10.114-5.907c0.476-0.295 0.909-0.132 0.553 0.163l-8.182 6.856z"></path>
</symbol>
<symbol id="icon-facebook" viewBox="0 0 32 32">
<path  d="M16 32c8.837 0 16-7.163 16-16s-7.163-16-16-16-16 7.163-16 16 7.163 16 16 16z"></path>
<path fill="#fff" style="fill: var(--color2, #fff)" d="M20.446 15.981h-2.611v9.619h-3.955v-9.619h-1.88v-3.379h1.88v-2.187c0-1.564 0.739-4.014 3.991-4.014l2.929 0.012v3.281h-2.125c-0.348 0-0.839 0.176-0.839 0.922v1.989h2.955l-0.345 3.377z"></path>
</symbol>
<symbol id="icon-logo" viewBox="0 0 127 32">
<path fill="#fff" style="fill: var(--color2, #fff)" d="M31.36 16.32c0 8.66-6.877 15.68-15.36 15.68s-15.36-7.020-15.36-15.68c0-8.66 6.877-15.68 15.36-15.68s15.36 7.020 15.36 15.68z"></path>
<path fill="#d41443" style="fill: var(--color3, #d41443)" d="M11.849 0.562c-7.406 2.243-11.849 8.073-11.849 15.442 0 6.023 3.091 11.277 8.179 13.904 2.64 1.346 3.027 0.384 0.58-1.474-1.739-1.41-2.061-2.050-2.061-4.421 0-1.666-0.386-3.011-0.966-3.524-1.159-0.961-1.288-3.46-0.129-4.357 0.451-0.384 0.902-1.666 0.966-2.819 0.322-4.229 4.894-8.201 9.467-8.201s9.145 3.973 9.466 8.201c0.064 1.153 0.515 2.435 0.966 2.819 1.159 0.897 1.030 3.396-0.129 4.357-0.58 0.513-0.966 1.858-0.966 3.524 0 2.371-0.322 3.011-2.061 4.421-2.705 2.114-1.932 2.883 1.095 1.025 4.25-2.627 7.406-8.33 7.406-13.391 0-10.124-10.561-18.325-19.963-15.506z"></path>
<path fill="#d41443" style="fill: var(--color3, #d41443)" d="M12.686 7.994c-1.159 0.513-2.125 1.153-2.125 1.538 0 0.705 3.477 1.986 5.474 1.986s5.474-1.281 5.474-1.986c0-0.769-3.993-2.499-5.603-2.499-0.644 0.064-2.125 0.449-3.22 0.961z"></path>
<path fill="#d41443" style="fill: var(--color3, #d41443)" d="M45.851 11.326c-0.966 0.256-1.159 1.089-1.159 5.703v5.382h4.572l-0.193-5.574c-0.193-5.831-0.451-6.279-3.22-5.51z"></path>
<path fill="#d41443" style="fill: var(--color3, #d41443)" d="M53.386 11.646c-2.125 1.153-2.898 2.563-2.898 5.318 0 3.78 2.061 5.574 5.86 5.318 2.576-0.192 2.833-0.384 3.027-1.986s0.064-1.73-1.932-1.602c-2.061 0.192-2.125 0.064-2.125-2.050s0.129-2.243 1.996-2.050c1.546 0.128 2.125-0.128 2.383-1.089 0.129-0.641 0-1.538-0.386-1.922-0.902-0.897-4.25-0.897-5.925 0.064z"></path>
<path fill="#d41443" style="fill: var(--color3, #d41443)" d="M61.049 11.71c-0.193 0.513-0.258 3.011-0.129 5.638l0.193 4.741h4.186c3.864 0 4.186-0.128 4.379-1.474 0.193-1.217-0.064-1.41-2.060-1.41-1.288 0-2.319-0.32-2.319-0.641 0-0.384 0.902-0.641 1.932-0.641 1.481 0 1.932-0.256 1.932-1.281s-0.451-1.281-1.932-1.281c-1.030 0-1.932-0.32-1.932-0.641 0-0.384 0.837-0.641 1.868-0.641 1.804 0 3.027-1.41 2.254-2.627-0.58-0.961-7.985-0.705-8.372 0.256z"></path>
<path fill="#d41443" style="fill: var(--color3, #d41443)" d="M73.993 11.518c-2.125 0.833-2.962 2.307-3.027 4.998-0.065 4.613 1.803 6.215 6.633 5.767 1.868-0.128 2.189-0.448 2.189-1.794 0-1.41-0.257-1.602-2.061-1.41-1.546 0.128-2.125-0.064-2.447-1.089-0.58-1.986 0.644-3.588 2.705-3.588 1.224 0 1.868-0.384 1.996-1.217 0.451-2.050-2.833-3.011-5.989-1.666z"></path>
<path fill="#d41443" style="fill: var(--color3, #d41443)" d="M81.914 11.262c-0.323 0.256-0.515 2.883-0.515 5.831v5.382l2.060-0.192c1.61-0.128 2.19-0.577 2.512-1.794l0.386-1.602 0.515 1.73c0.387 1.474 0.837 1.794 2.512 1.794 2.769 0 3.091-0.448 1.932-2.691-0.708-1.41-0.837-2.114-0.322-2.627 0.837-0.833 0.902-3.652 0.129-4.87-0.644-1.025-8.371-1.858-9.208-0.961zM87.194 14.722c0 0.705-0.257 1.281-0.644 1.281-0.322 0-0.644-0.577-0.644-1.281s0.322-1.281 0.644-1.281c0.387 0 0.644 0.577 0.644 1.281z"></path>
<path fill="#d41443" style="fill: var(--color3, #d41443)" d="M93.441 11.326c-0.258 0.192-0.451 2.819-0.451 5.767v5.318h4.186c4.057 0 4.186-0.064 4.186-1.602 0-1.346-0.322-1.602-1.932-1.602-1.030 0-1.932-0.32-1.932-0.641 0-0.384 0.708-0.641 1.61-0.641 1.159 0 1.61-0.32 1.61-1.281s-0.451-1.281-1.61-1.281c-0.902 0-1.61-0.32-1.61-0.641 0-0.384 0.902-0.641 1.932-0.641 1.61 0 1.932-0.256 1.932-1.602 0-1.538-0.193-1.602-3.735-1.602-2.061 0-3.992 0.192-4.186 0.448z"></path>
<path fill="#d41443" style="fill: var(--color3, #d41443)" d="M106.45 11.262c-1.16 0.32-4.122 8.842-3.542 10.252 0.515 1.281 3.413 1.153 4.186-0.192 0.579-1.089 0.644-1.089 1.803 0 1.482 1.281 4.701 1.474 4.701 0.256 0-0.384-0.644-2.947-1.482-5.574-1.288-4.229-1.674-4.806-3.027-4.934-0.902 0-2.061 0.064-2.64 0.192zM108.253 17.093c-0.193 0.641-0.322 0.256-0.322-0.769 0-1.089 0.129-1.538 0.322-1.153 0.129 0.448 0.129 1.346 0 1.922z"></path>
<path fill="#d41443" style="fill: var(--color3, #d41443)" d="M115.723 11.326c-0.58 0.192-0.837 1.986-0.837 5.703v5.382h1.868c1.61 0 1.932-0.32 2.189-1.794 0.257-1.666 0.257-1.666 0.772-0.32 0.258 0.833 0.902 1.474 1.352 1.474 0.515 0 1.224-0.641 1.546-1.474 0.515-1.346 0.58-1.346 0.58 0.384 0.065 1.602 0.257 1.794 2.061 1.602l1.996-0.192 0.065-5.318c0.129-4.934 0.064-5.318-1.288-5.638-2.061-0.513-3.799 0.705-4.379 3.076l-0.451 2.114-0.708-2.243c-0.902-3.011-2.254-3.78-4.765-2.755z"></path>
<path fill="#d41443" style="fill: var(--color3, #d41443)" d="M9.016 11.967c-0.193 0.256-0.386 1.089-0.386 1.922 0 1.474 0.064 1.474 7.406 1.474s7.406 0 7.406-1.474c0-2.178-0.58-2.435-2.64-1.41-2.318 1.217-7.213 1.217-9.531 0-1.030-0.513-1.996-0.705-2.254-0.513z"></path>
<path fill="#d41443" style="fill: var(--color3, #d41443)" d="M7.148 17.669c-1.030 1.089 0.708 1.538 5.731 1.538h5.409v2.243c0 1.217 0.322 2.243 0.644 2.243 0.386 0 0.644-0.961 0.644-2.178 0-2.114 0.129-2.243 2.576-2.435 1.417-0.128 2.576-0.513 2.576-0.833 0-0.705-16.872-1.281-17.581-0.577z"></path>
<path fill="#d41443" style="fill: var(--color3, #d41443)" d="M8.629 23.308c0 3.524 1.224 4.229 7.406 4.229s7.406-0.705 7.406-4.229c0-1.538-0.322-2.178-0.966-2.178-0.58 0-0.966 0.577-0.966 1.538 0 3.588-4.894 3.908-5.603 0.384-0.322-1.858-0.515-1.922-3.8-1.922h-3.477v2.178z"></path>
<path fill="#d41443" style="fill: var(--color3, #d41443)" d="M12.622 30.548c0.386 2.050 6.955 1.858 6.955-0.128 0-0.705-0.837-0.961-3.606-0.961-3.027 0-3.542 0.192-3.349 1.089z"></path>
</symbol>
<symbol id="icon-close" viewBox="0 0 32 32">
<path fill="none" stroke="#fff" style="stroke: var(--color1, #fff)" stroke-linejoin="miter" stroke-linecap="butt" stroke-miterlimit="4" stroke-width="2" d="M2.52 2l26.96 28M2 29.48l28-26.96"></path>
</symbol><symbol id="icon-burger" viewBox="0 0 46 32">
<path fill="none" stroke-linejoin="miter" stroke-linecap="butt" stroke-miterlimit="4" stroke-width="2.2857" d="M0 2.286h45.714M0 16h45.714M0 29.714h45.714"></path>
</symbol><symbol id="icon-further" viewBox="0 0 19 32">
<path fill="none" stroke-linejoin="round" stroke-linecap="round" stroke-miterlimit="4" stroke-width="6.4" d="M3.2 3.2l12.8 12.8-12.8 12.8"></path>
</symbol><symbol id="icon-arrow-right" viewBox="0 0 32 32">
<path d="M0 0h32v32h-32v-32z"></path>
</symbol>
<symbol id="icon-more" viewBox="0 0 22 32">
<path fill="none" stroke="#fff" style="stroke: var(--color1, #fff)" stroke-linejoin="round" stroke-linecap="round" stroke-miterlimit="4" stroke-width="6.4" d="M4.49 3.2l13.696 12.8-13.696 12.8"></path>
</symbol>
<symbol id="icon-more1" viewBox="0 0 22 32">
<path fill="none" stroke="#D41443" style="stroke: var(--color1, #D41443)" stroke-linejoin="round" stroke-linecap="round" stroke-miterlimit="4" stroke-width="6.4" d="M4.49 3.2l13.696 12.8-13.696 12.8"></path>
</symbol>
<symbol id="icon-menu-close" viewBox="0 0 32 32">
<path d="M23.734 10.304l-1.504-1.504-5.963 5.962-5.962-5.962-1.504 1.504 5.962 5.962-5.962 5.963 1.504 1.504 5.962-5.963 5.963 5.963 1.504-1.504-5.963-5.963 5.963-5.962z"></path>
</symbol>
<symbol id="icon-email" viewBox="0 0 32 32">
<path d="M26.667 5.333h-21.333c-1.467 0-2.653 1.2-2.653 2.667l-0.013 16c0 1.467 1.2 2.667 2.667 2.667h21.333c1.467 0 2.667-1.2 2.667-2.667v-16c0-1.467-1.2-2.667-2.667-2.667zM26.133 11l-9.427 5.893c-0.427 0.267-0.987 0.267-1.413 0l-9.427-5.893c-0.333-0.213-0.533-0.573-0.533-0.96 0-0.893 0.973-1.427 1.733-0.96l8.933 5.587 8.933-5.587c0.76-0.467 1.733 0.067 1.733 0.96 0 0.387-0.2 0.747-0.533 0.96z"></path>
</symbol>
<symbol id="icon-phone" viewBox="0 0 32 32">
<path d="M24.882 19.774l-3.268-0.373c-0.785-0.090-1.557 0.18-2.11 0.733l-2.367 2.367c-3.641-1.853-6.626-4.825-8.478-8.478l2.38-2.38c0.553-0.553 0.823-1.325 0.733-2.11l-0.373-3.242c-0.154-1.299-1.248-2.277-2.56-2.277h-2.226c-1.454 0-2.663 1.209-2.573 2.663 0.682 10.987 9.469 19.761 20.443 20.443 1.454 0.090 2.663-1.119 2.663-2.573v-2.226c0.013-1.299-0.965-2.393-2.264-2.547z"></path>
</symbol>
<symbol id="icon-person" viewBox="0 0 32 32">
<path d="M16 16c2.947 0 5.333-2.387 5.333-5.333s-2.387-5.333-5.333-5.333c-2.947 0-5.333 2.387-5.333 5.333s2.387 5.333 5.333 5.333zM16 18.667c-3.56 0-10.667 1.787-10.667 5.333v1.333c0 0.733 0.6 1.333 1.333 1.333h18.667c0.733 0 1.333-0.6 1.333-1.333v-1.333c0-3.547-7.107-5.333-10.667-5.333z"></path>
</symbol>
<symbol id="icon-sky" viewBox="0 0 57 32">
<path d="M53.844 10.911c-0.071 0.058-0.182 0.156-0.244 0.218-0.102 0.098-0.378 0.244-0.524 0.276-0.027 0.004-0.080-0.031-0.116-0.080-0.040-0.053-0.071-0.071-0.093-0.040-0.018 0.036-0.058 0.036-0.124-0.004-0.053-0.027-0.151-0.049-0.218-0.040-0.071 0.004-0.156-0.018-0.191-0.058-0.062-0.062-0.080-0.058-0.156 0.018-0.093 0.093-0.356 0.124-0.356 0.044 0-0.027-0.022-0.044-0.049-0.044-0.022 0-0.031 0.022-0.013 0.053 0.031 0.049 0.018 0.049-0.244-0.036-0.058-0.018-0.089 0-0.102 0.062-0.018 0.067-0.076 0.098-0.231 0.12-0.111 0.018-0.204 0.049-0.204 0.071s-0.031 0.040-0.067 0.040c-0.040 0-0.080 0.027-0.093 0.058-0.009 0.031-0.062 0.062-0.116 0.062-0.053 0.004-0.107 0.031-0.124 0.058-0.018 0.031-0.049 0.053-0.071 0.053s-0.084 0.018-0.142 0.040c-0.133 0.049-0.262 0.049-0.293 0-0.031-0.044-0.249-0.009-0.324 0.053-0.040 0.027-0.058 0.027-0.058-0.009 0-0.031-0.040-0.040-0.107-0.022-0.058 0.013-0.12 0.004-0.133-0.022-0.031-0.049-0.68-0.062-0.756-0.013-0.080 0.049-0.213 0.058-0.182 0.009 0.018-0.027-0.009-0.031-0.076-0.004-0.058 0.018-0.191 0.031-0.298 0.022-0.196-0.009-0.276 0.031-0.324 0.164-0.027 0.071-0.213 0.124-0.347 0.093-0.040-0.004-0.093-0.071-0.124-0.142-0.053-0.116-0.071-0.129-0.156-0.084-0.053 0.031-0.084 0.036-0.067 0.018 0.044-0.049-0.049-0.156-0.133-0.156-0.036 0-0.053 0.013-0.040 0.031 0.058 0.053-0.12 0.142-0.2 0.098-0.049-0.027-0.080-0.027-0.080-0.004 0 0.027-0.040 0.053-0.084 0.067-0.107 0.027-0.347-0.173-0.369-0.302-0.009-0.049-0.036-0.084-0.058-0.080-0.027 0.004-0.062-0.022-0.080-0.058-0.044-0.080-0.298-0.080-0.458 0.004s-0.24 0.084-0.24 0.004c0-0.036-0.058-0.084-0.133-0.111-0.098-0.031-0.133-0.031-0.133 0.009s-0.009 0.040-0.036 0c-0.053-0.084-0.396-0.116-0.427-0.036-0.013 0.036-0.053 0.067-0.093 0.067-0.036 0-0.067 0.031-0.067 0.067s-0.031 0.067-0.067 0.067c-0.036 0-0.067 0.018-0.067 0.044 0 0.022-0.027 0.031-0.062 0.018s-0.076 0-0.093 0.027c-0.018 0.027-0.089 0.036-0.169 0.022-0.124-0.022-0.169 0-0.373 0.2-0.173 0.173-0.271 0.231-0.387 0.244-0.124 0.009-0.151 0-0.147-0.067 0-0.044 0.027-0.071 0.058-0.058 0.058 0.022 0.16-0.329 0.102-0.364-0.018-0.013-0.027-0.053-0.013-0.084 0.018-0.040-0.022-0.071-0.111-0.093-0.076-0.018-0.138-0.044-0.138-0.067 0-0.089-0.218-0.062-0.444 0.053-0.133 0.067-0.253 0.102-0.267 0.076-0.018-0.022-0.076-0.040-0.138-0.036-0.058 0.004-0.169-0.009-0.24-0.027-0.102-0.022-0.16-0.009-0.24 0.062-0.124 0.107-0.204 0.12-0.169 0.031s-0.058-0.16-0.2-0.16c-0.093 0-0.142 0.031-0.178 0.111-0.027 0.062-0.076 0.111-0.111 0.111-0.031 0-0.058 0.018-0.058 0.036 0 0.044-0.453 0.276-0.542 0.276-0.036 0-0.116 0.049-0.173 0.107-0.111 0.107-0.484 0.2-0.484 0.116 0-0.022-0.022-0.044-0.049-0.044-0.022 0-0.031 0.018-0.018 0.044 0.036 0.062 0.022 0.058-0.173-0.044-0.151-0.076-0.178-0.076-0.236-0.022-0.036 0.036-0.076 0.067-0.084 0.067-0.040 0-0.151-0.124-0.151-0.169 0-0.058-0.173-0.098-0.204-0.049-0.013 0.022-0.044 0.031-0.067 0.018-0.022-0.018-0.040-0.004-0.040 0.018 0 0.027-0.044 0.049-0.102 0.049-0.053 0-0.138 0.027-0.187 0.058-0.049 0.036-0.196 0.067-0.324 0.071s-0.289 0.040-0.356 0.076c-0.067 0.031-0.156 0.062-0.196 0.062-0.080 0-0.187 0.147-0.142 0.191 0.031 0.031-0.16 0.138-0.258 0.147-0.062 0.004-0.071-0.018-0.053-0.093 0.031-0.133-0.062-0.187-0.138-0.084-0.031 0.049-0.040 0.089-0.018 0.098s0.040 0.036 0.040 0.062c0 0.031-0.018 0.031-0.058 0-0.031-0.027-0.098-0.040-0.151-0.027-0.076 0.022-0.098 0-0.124-0.111-0.013-0.076-0.044-0.133-0.058-0.129-0.058 0.018-0.364-0.151-0.364-0.204 0-0.027-0.022-0.018-0.044 0.018-0.027 0.040-0.044 0.049-0.044 0.013 0-0.031-0.027-0.044-0.062-0.031s-0.076 0.004-0.093-0.022c-0.013-0.027-0.004-0.049 0.027-0.049 0.027 0 0.004-0.040-0.053-0.089-0.093-0.071-0.111-0.076-0.156-0.018-0.044 0.053-0.058 0.044-0.084-0.058-0.022-0.067-0.036-0.138-0.031-0.16 0.004-0.018-0.040-0.031-0.102-0.031-0.080 0-0.124 0.031-0.16 0.116-0.040 0.116-0.044 0.116-0.107 0.036-0.036-0.044-0.067-0.156-0.067-0.249 0-0.187-0.093-0.204-0.222-0.036-0.044 0.058-0.124 0.098-0.191 0.098s-0.142 0.031-0.169 0.062c-0.027 0.036-0.071 0.049-0.093 0.036-0.027-0.018-0.138-0.031-0.253-0.036-0.111-0.004-0.32-0.062-0.462-0.129-0.249-0.111-0.267-0.116-0.373-0.044-0.133 0.089-0.507 0.151-0.573 0.098-0.027-0.022-0.129-0.049-0.231-0.062-0.16-0.018-0.182-0.013-0.156 0.053 0.022 0.058 0.009 0.067-0.049 0.044-0.044-0.018-0.067-0.013-0.049 0.013 0.053 0.084-0.022 0.138-0.124 0.080-0.116-0.062-0.342-0.080-0.342-0.027 0 0.067-0.244 0.036-0.422-0.053-0.231-0.12-0.604-0.111-0.822 0.013-0.084 0.053-0.169 0.111-0.182 0.133-0.018 0.022-0.040 0.018-0.058-0.009-0.049-0.076-0.151-0.058-0.289 0.044-0.12 0.089-0.258 0.084-0.204-0.009 0.018-0.022 0.004-0.040-0.027-0.040s-0.102-0.044-0.156-0.093c-0.098-0.089-0.111-0.093-0.209-0.027-0.093 0.058-0.124 0.062-0.227 0.009-0.062-0.036-0.156-0.053-0.204-0.044s-0.098 0-0.111-0.027c-0.018-0.022-0.049-0.040-0.076-0.040s-0.036 0.013-0.022 0.031c0.018 0.013-0.049 0.062-0.147 0.107-0.111 0.049-0.169 0.102-0.156 0.138 0.022 0.058-0.342 0.36-0.444 0.369-0.049 0.004-0.276 0.098-0.378 0.16-0.169 0.098-0.369 0.169-0.409 0.147-0.022-0.018-0.036-0.067-0.022-0.111 0.018-0.071-0.004-0.084-0.147-0.084-0.093 0-0.191-0.031-0.222-0.067-0.067-0.080-0.204-0.089-0.236-0.013-0.018 0.044-0.027 0.044-0.027 0-0.004-0.027-0.027-0.053-0.058-0.053-0.027 0-0.036 0.013-0.022 0.031 0.049 0.044-0.058 0.147-0.151 0.147-0.049 0-0.124-0.027-0.178-0.058-0.076-0.044-0.098-0.040-0.147 0.022-0.062 0.084-0.16 0.107-0.16 0.040 0-0.022 0.022-0.049 0.053-0.058 0.093-0.031 0.004-0.164-0.093-0.138-0.053 0.013-0.093 0.040-0.093 0.062s-0.022 0.040-0.049 0.040c-0.027 0-0.031-0.022-0.009-0.058 0.062-0.102 0.058-0.2-0.022-0.231-0.142-0.062-0.289-0.062-0.409 0-0.129 0.067-0.28 0.058-0.378-0.022-0.031-0.027-0.156-0.076-0.28-0.111-0.191-0.058-0.249-0.062-0.373-0.009-0.28 0.111-0.564 0.044-0.569-0.129 0-0.031-0.084-0.062-0.187-0.076-0.169-0.018-0.204-0.004-0.307 0.107-0.062 0.071-0.138 0.129-0.164 0.129-0.031 0-0.076 0.049-0.102 0.107-0.044 0.093-0.080 0.107-0.258 0.102-0.156-0.009-0.204 0.009-0.204 0.058 0 0.036-0.018 0.080-0.044 0.098-0.053 0.040-0.156-0.044-0.156-0.124 0-0.036-0.049-0.084-0.107-0.111-0.12-0.058-0.293 0.013-0.293 0.116 0 0.036-0.022 0.067-0.053 0.067-0.027 0-0.084 0.027-0.12 0.062-0.044 0.040-0.191 0.071-0.36 0.080-0.276 0.013-0.289 0.009-0.28-0.089 0.022-0.169-0.156-0.2-0.413-0.076-0.218 0.111-0.444 0.142-0.471 0.071-0.022-0.053-0.347-0.107-0.347-0.053 0 0.044-0.298 0.031-0.347-0.018-0.018-0.013 0-0.044 0.036-0.071 0.044-0.027 0.013-0.036-0.107-0.022-0.116 0.013-0.222 0.067-0.316 0.16l-0.147 0.142-0.102-0.102c-0.093-0.093-0.093-0.102-0.018-0.129 0.080-0.027 0.080-0.031 0.004-0.058-0.044-0.018-0.111-0.009-0.151 0.022-0.053 0.044-0.071 0.044-0.084 0.004-0.018-0.044-0.040-0.044-0.107 0-0.062 0.036-0.098 0.040-0.12 0.004-0.018-0.027-0.067-0.058-0.111-0.076-0.040-0.018-0.076-0.044-0.071-0.062 0.018-0.093-0.013-0.142-0.098-0.169-0.067-0.022-0.080-0.044-0.044-0.080 0.027-0.027 0.049-0.098 0.049-0.156 0-0.093-0.018-0.107-0.133-0.089-0.076 0.013-0.133 0.004-0.133-0.018s-0.018-0.031-0.040-0.018c-0.022 0.018-0.049 0.004-0.058-0.018-0.009-0.027-0.058-0.053-0.116-0.058-0.053 0-0.098-0.027-0.098-0.053-0.004-0.022-0.036 0.009-0.071 0.076-0.036 0.071-0.089 0.129-0.12 0.133-0.031 0-0.071 0.009-0.098 0.009-0.022 0.004-0.067 0.018-0.089 0.036-0.027 0.018-0.249 0.049-0.489 0.076-0.378 0.044-0.48 0.040-0.68-0.018-0.227-0.071-0.244-0.067-0.413 0.018-0.098 0.053-0.244 0.093-0.329 0.093-0.080 0-0.164 0.022-0.178 0.044-0.044 0.071-0.453 0.027-0.547-0.053-0.040-0.040-0.133-0.080-0.209-0.093-0.307-0.062-0.467-0.071-0.467-0.036 0 0.018-0.062 0.036-0.142 0.040-0.076 0-0.151 0.027-0.169 0.053-0.062 0.102-0.244 0-0.32-0.178-0.058-0.138-0.098-0.178-0.178-0.178-0.058 0-0.151-0.040-0.204-0.093-0.089-0.080-0.107-0.084-0.169-0.022-0.036 0.040-0.107 0.071-0.147 0.071-0.111 0-0.173 0.084-0.173 0.236 0.004 0.182-0.12 0.293-0.293 0.271-0.102-0.013-0.178 0.009-0.249 0.071-0.058 0.049-0.138 0.089-0.182 0.089s-0.133 0.022-0.196 0.053c-0.080 0.036-0.138 0.036-0.213 0-0.053-0.027-0.182-0.080-0.284-0.124s-0.178-0.098-0.16-0.12c0.049-0.076-0.316-0.009-0.409 0.080-0.053 0.049-0.089 0.102-0.084 0.116 0.009 0.013-0.009 0.027-0.040 0.031s-0.151 0.027-0.276 0.049c-0.12 0.022-0.253 0.022-0.289 0.004-0.111-0.058-0.249 0.027-0.4 0.24-0.129 0.191-0.151 0.204-0.329 0.204-0.129 0-0.204-0.022-0.218-0.062-0.031-0.084-0.209-0.040-0.209 0.049 0 0.058-0.040 0.062-0.209 0.040-0.307-0.044-0.516-0.036-0.48 0.022 0.036 0.053-0.156 0.080-0.213 0.027-0.107-0.102-0.28-0.164-0.542-0.182-0.147-0.013-0.271-0.044-0.28-0.071-0.009-0.022-0.044-0.044-0.080-0.044s-0.062-0.018-0.062-0.040c0-0.058-0.236-0.036-0.289 0.027-0.036 0.044-0.071 0.044-0.173-0.009-0.071-0.040-0.164-0.076-0.2-0.084-0.093-0.018-0.231-0.067-0.324-0.12-0.044-0.022-0.107-0.040-0.142-0.040s-0.071-0.027-0.084-0.062c-0.013-0.031-0.076-0.062-0.142-0.062-0.178 0-0.258-0.107-0.284-0.378-0.004-0.018-0.036-0.031-0.071-0.031-0.062 0-0.058 0.013 0.004 0.111 0.040 0.062 0.067 0.12 0.058 0.129s-0.111 0.009-0.227-0.004c-0.218-0.027-0.249-0.071-0.111-0.196 0.093-0.089 0.093-0.129 0-0.196-0.076-0.058-0.249-0.040-0.213 0.022 0.013 0.022 0.009 0.067-0.004 0.107-0.031 0.084-0.222 0.093-0.271 0.013-0.018-0.031-0.111-0.116-0.204-0.182-0.147-0.116-0.182-0.12-0.338-0.080-0.142 0.036-0.196 0.027-0.298-0.040-0.12-0.076-0.124-0.076-0.28 0.031-0.173 0.116-0.289 0.133-0.476 0.062-0.084-0.031-0.133-0.031-0.178 0.004-0.036 0.031-0.138 0.040-0.24 0.027-0.236-0.031-0.516 0.080-0.551 0.213-0.027 0.098-0.036 0.102-0.48 0.084-0.253-0.009-0.507-0.027-0.569-0.036-0.062-0.004-0.156-0.018-0.213-0.018-0.058-0.004-0.089-0.031-0.076-0.053 0.013-0.027 0.009-0.044-0.013-0.044s-0.062-0.049-0.089-0.111c-0.031-0.067-0.076-0.098-0.116-0.084-0.036 0.013-0.076 0.004-0.093-0.022-0.013-0.027-0.044-0.049-0.071-0.049-0.022 0-0.040 3.938-0.040 10.422v10.422h56.889l-0.009-9.947-0.013-9.942-0.333-0.004c-0.427 0-0.533-0.036-0.644-0.209-0.093-0.147-0.182-0.178-0.556-0.178-0.182 0-0.218-0.018-0.324-0.169-0.067-0.089-0.12-0.187-0.12-0.213 0-0.022-0.053-0.12-0.116-0.213-0.111-0.164-0.12-0.169-0.378-0.169-0.209 0-0.28-0.018-0.311-0.080-0.058-0.098-0.080-0.093-0.24 0.036zM45.422 11.738c0 0.022-0.018 0.040-0.044 0.040-0.022 0-0.044-0.031-0.044-0.071 0-0.036 0.022-0.053 0.044-0.040 0.027 0.013 0.044 0.044 0.044 0.071zM45.191 11.773c0.013 0.036-0.004 0.053-0.040 0.040-0.031-0.009-0.067-0.044-0.076-0.076-0.013-0.036 0.004-0.053 0.040-0.040 0.031 0.009 0.067 0.044 0.076 0.076zM14.133 11.8c0 0.076-0.098 0.129-0.182 0.102-0.036-0.013-0.027-0.040 0.022-0.093 0.098-0.093 0.16-0.098 0.16-0.009z"></path>
<path d="M18.831 11.409c-0.053 0.049-0.036 0.084 0.053 0.089 0.049 0.004 0.098-0.022 0.111-0.058 0.027-0.062-0.107-0.089-0.164-0.031z"></path>
<path d="M18.609 11.538c-0.018 0.018-0.031 0.062-0.031 0.102 0 0.049 0.013 0.053 0.049 0.018 0.027-0.027 0.044-0.071 0.031-0.102-0.009-0.027-0.031-0.036-0.049-0.018z"></path>
<path d="M18.756 11.627c0 0.036 0.022 0.053 0.044 0.040 0.027-0.018 0.036-0.049 0.022-0.071-0.040-0.062-0.067-0.049-0.067 0.031z"></path>
<path d="M18.956 11.64c-0.044 0.138 0.013 0.267 0.111 0.258 0.084-0.004 0.133-0.164 0.049-0.164-0.022 0-0.036-0.031-0.031-0.071 0.009-0.111-0.093-0.124-0.129-0.022z"></path>
<path d="M55.156 11.573c0 0.009 0.031 0.031 0.071 0.044 0.036 0.013 0.053 0.009 0.040-0.018-0.027-0.044-0.111-0.062-0.111-0.027z"></path>
<path d="M19.213 11.662c0 0.036 0.027 0.053 0.062 0.040 0.031-0.013 0.044-0.040 0.031-0.062-0.036-0.062-0.093-0.049-0.093 0.022z"></path>
<path d="M9.289 11.707c0 0.009 0.031 0.040 0.067 0.071 0.058 0.049 0.062 0.044 0.040-0.018s-0.107-0.102-0.107-0.053z"></path>
<path d="M14.733 11.733c0.013 0.022 0.036 0.044 0.049 0.044 0.009 0 0.018-0.022 0.018-0.044 0-0.027-0.022-0.044-0.049-0.044-0.022 0-0.031 0.018-0.018 0.044z"></path>
<path d="M9.244 11.862c0 0.053 0.022 0.093 0.044 0.093 0.027 0 0.044-0.027 0.044-0.062s-0.018-0.080-0.044-0.093c-0.022-0.013-0.044 0.013-0.044 0.062z"></path>
<path d="M18.667 11.956c0 0.022 0.022 0.044 0.044 0.044 0.027 0 0.044-0.022 0.044-0.044 0-0.027-0.018-0.044-0.044-0.044-0.022 0-0.044 0.018-0.044 0.044z"></path>
<path d="M36.689 11.951c-0.036 0.062 0.124 0.138 0.196 0.093 0.036-0.018 0.044-0.058 0.031-0.084-0.040-0.058-0.191-0.067-0.227-0.009z"></path>
<path d="M36.916 12.164c0.022 0.022 0.053 0.053 0.071 0.080s0.036 0.009 0.036-0.036c0-0.040-0.031-0.076-0.076-0.076-0.040 0-0.053 0.013-0.031 0.031z"></path>
<path d="M8.907 12.342c0.009 0.040 0.036 0.084 0.062 0.093s0.036-0.022 0.022-0.076c-0.027-0.111-0.098-0.124-0.084-0.018z"></path>
</symbol>
</defs>
</svg>
